<svg width="225" height="225" version="1.1" xmlns="http://www.w3.org/2000/svg" desc="Created with imagetracer.js version 1.2.6" ><path fill="rgb(90,90,90)" stroke="rgb(90,90,90)" stroke-width="1" opacity="1" d="M 46.5 24 L 181 24.5 L 46.5 25 L 46.5 24 Z " /><path fill="rgb(90,90,90)" stroke="rgb(90,90,90)" stroke-width="1" opacity="1" d="M 188.5 27 L 190.5 30 L 188.5 27 Z " /><path fill="rgb(90,90,90)" stroke="rgb(90,90,90)" stroke-width="1" opacity="1" d="M 33.5 37 L 34 200.5 L 33 200.5 L 33.5 37 Z " /><path fill="rgb(90,90,90)" stroke="rgb(90,90,90)" stroke-width="1" opacity="1" d="M 114.5 135 L 122.5 144 L 114.5 135 Z " /><path fill="rgb(90,90,90)" stroke="rgb(90,90,90)" stroke-width="1" opacity="1" d="M 102.5 145 L 92.5 156 L 102.5 145 Z " /><path fill="rgb(90,90,90)" stroke="rgb(90,90,90)" stroke-width="1" opacity="1" d="M 114.5 157 L 117.5 161 L 114.5 157 Z " /><path fill="rgb(90,90,90)" stroke="rgb(90,90,90)" stroke-width="1" opacity="1" d="M 139.5 159 L 146.5 167 L 139.5 159 Z " /><path fill="rgb(90,90,90)" stroke="rgb(90,90,90)" stroke-width="1" opacity="1" d="M 106.5 163 L 97.5 173 L 106.5 163 Z " /><path fill="rgb(90,90,90)" stroke="rgb(90,90,90)" stroke-width="1" opacity="1" d="M 77.5 169 L 69.5 178 L 77.5 169 Z " /><path fill="rgb(90,90,90)" stroke="rgb(90,90,90)" stroke-width="1" opacity="1" d="M 133.5 175 L 143.5 186 L 133.5 175 Z " /><path fill="rgb(90,90,90)" stroke="rgb(90,90,90)" stroke-width="1" opacity="1" d="M 163.5 182 L 172.5 192 L 163.5 182 Z " /><path fill="rgb(90,90,90)" stroke="rgb(90,90,90)" stroke-width="1" opacity="1" d="M 81.5 187 L 71.5 198 L 81.5 187 Z " /><path fill="rgb(90,90,90)" stroke="rgb(90,90,90)" stroke-width="1" opacity="1" d="M 52.5 193 L 50.5 196 L 52.5 193 Z " /><path fill="rgb(90,90,90)" stroke="rgb(90,90,90)" stroke-width="1" opacity="1" d="M 161.5 202 L 169.5 211 L 161.5 202 Z " /><path fill="rgb(90,90,90)" stroke="rgb(90,90,90)" stroke-width="1" opacity="1" d="M 35.5 207 L 36.5 209 L 35.5 207 Z " /><path fill="rgb(183,183,183)" stroke="rgb(183,183,183)" stroke-width="1" opacity="1" d="M 38.5 27 L 36.5 30 L 38.5 27 Z " /><path fill="rgb(183,183,183)" stroke="rgb(183,183,183)" stroke-width="1" opacity="1" d="M 191.5 30 L 192.5 32 L 191.5 30 Z " /><path fill="rgb(183,183,183)" stroke="rgb(183,183,183)" stroke-width="1" opacity="1" d="M 50.5 40 L 178 40.5 L 50 41 L 49.5 196 L 49 41.5 L 50.5 40 Z " /><path fill="rgb(183,183,183)" stroke="rgb(183,183,183)" stroke-width="1" opacity="1" d="M 112.5 135 L 103.5 145 L 112.5 135 Z " /><path fill="rgb(183,183,183)" stroke="rgb(183,183,183)" stroke-width="1" opacity="1" d="M 128.5 148 L 138.5 159 L 128.5 148 Z " /><path fill="rgb(183,183,183)" stroke="rgb(183,183,183)" stroke-width="1" opacity="1" d="M 89.5 157 L 78.5 169 L 89.5 157 Z " /><path fill="rgb(183,183,183)" stroke="rgb(183,183,183)" stroke-width="1" opacity="1" d="M 113.5 157 L 112.5 159 L 113.5 157 Z " /><path fill="rgb(183,183,183)" stroke="rgb(183,183,183)" stroke-width="1" opacity="1" d="M 118.5 161 L 129.5 173 L 118.5 161 Z " /><path fill="rgb(183,183,183)" stroke="rgb(183,183,183)" stroke-width="1" opacity="1" d="M 152.5 171 L 162.5 182 L 152.5 171 Z " /><path fill="rgb(183,183,183)" stroke="rgb(183,183,183)" stroke-width="1" opacity="1" d="M 96.5 173 L 86.5 184 L 96.5 173 Z " /><path fill="rgb(183,183,183)" stroke="rgb(183,183,183)" stroke-width="1" opacity="1" d="M 63.5 182 L 53.5 193 L 63.5 182 Z " /><path fill="rgb(183,183,183)" stroke="rgb(183,183,183)" stroke-width="1" opacity="1" d="M 144.5 186 L 155.5 198 L 144.5 186 Z " /><path fill="rgb(183,183,183)" stroke="rgb(183,183,183)" stroke-width="1" opacity="1" d="M 70.5 198 L 59.5 210 L 70.5 198 Z " /><path fill="rgb(183,183,183)" stroke="rgb(183,183,183)" stroke-width="1" opacity="1" d="M 33.5 201 L 34 203.5 L 33 203.5 L 33.5 201 Z " /><path fill="rgb(183,183,183)" stroke="rgb(183,183,183)" stroke-width="1" opacity="1" d="M 191.5 208 L 188.5 212 L 191.5 208 Z " /><path fill="rgb(183,183,183)" stroke="rgb(183,183,183)" stroke-width="1" opacity="1" d="M 46.5 214 L 50 214.5 L 46.5 215 L 46.5 214 Z " /><path fill="rgb(183,183,183)" stroke="rgb(183,183,183)" stroke-width="1" opacity="1" d="M 178.5 214 L 181 214.5 L 178.5 215 L 178.5 214 Z " /><path fill="rgb(255,255,255)" stroke="rgb(255,255,255)" stroke-width="1" opacity="1" d="M 0 0 L 225 0 L 225 225 L 0 225 L 0 0 Z M 45 24 L 39 27 L 33 36 L 33 204 L 35 208 Q 38 214 47 215 Q 55 215 60 210 L 114 158 L 171 212 L 179 215 L 189 212 L 194 205 L 194 34 L 193 32 Q 190 26 183 24 L 45 24 Z " /><path fill="rgb(255,255,255)" stroke="rgb(255,255,255)" stroke-width="1" opacity="1" d="M 50 41 L 178 41 L 178 195.5 L 177 195.5 Q 177.8 193.3 175.5 194 L 128.5 148 L 114.5 135 L 112.5 135 L 50.5 195 L 50 41 Z " /><path fill="rgb(0,0,0)" stroke="rgb(0,0,0)" stroke-width="1" opacity="1" d="M 43.5 25 L 183.5 25 L 192 31.5 L 194 36.5 L 194 201.5 Q 192.9 208.9 187.5 212 Q 183.9 214.9 176.5 214 L 171.5 212 L 113.5 157 L 57.5 211 L 51.5 214 L 44.5 214 L 37 209.5 L 34 204.5 L 34 34.5 L 39.5 27 L 43.5 25 Z M 49 40 L 49 196 L 51 196 L 114 135 L 174 192 L 178 196 L 178 40 L 49 40 Z " /></svg>